<svg width="42" height="41" viewBox="0 0 42 41" fill="none" xmlns="http://www.w3.org/2000/svg">
<g id="Logo">
<path id="Union" d="M28.0456 32.6664C29.3733 33.4329 31.0709 32.978 31.8374 31.6504L39.7869 17.8814C40.5534 16.5538 40.0986 14.8561 38.7709 14.0896L17.8238 1.9958C16.4962 1.22929 14.7985 1.68417 14.032 3.0118L6.08251 16.7808C5.316 18.1084 5.77088 19.806 7.09851 20.5726L16.9071 26.2355C16.9083 26.2406 16.9097 26.2456 16.911 26.2506L19.5361 36.0477C19.7495 36.8439 20.819 36.9847 21.2311 36.2709L24.4956 30.6167L28.0456 32.6664Z" fill="#4EAF4E"/>
<rect id="Rectangle 15" x="15.1582" y="16.1995" width="13.8699" height="1.55035" rx="0.775175" transform="rotate(30 15.1582 16.1995)" fill="#1B1B1B"/>
<rect id="Rectangle 16" x="17.1553" y="12.7402" width="13.8699" height="1.55035" rx="0.775175" transform="rotate(30 17.1553 12.7402)" fill="#1B1B1B"/>
<rect id="Rectangle 17" x="18.9463" y="9.6394" width="13.8699" height="1.55035" rx="0.775175" transform="rotate(30 18.9463 9.6394)" fill="#1B1B1B"/>
</g>
</svg>
